<?xml version="1.0" encoding="utf-8"?>
<!-- Generator: Adobe Illustrator 16.0.4, SVG Export Plug-In . SVG Version: 6.00 Build 0)  -->
<!DOCTYPE svg PUBLIC "-//W3C//DTD SVG 1.1//EN" "http://www.w3.org/Graphics/SVG/1.1/DTD/svg11.dtd">
<svg version="1.1" id="Layer_1" xmlns="http://www.w3.org/2000/svg" xmlns:xlink="http://www.w3.org/1999/xlink" x="0px" y="0px"
	 width="36px" height="36px" viewBox="0 0 36 36" enable-background="new 0 0 36 36" xml:space="preserve">
<path fill="#FFFFFF" d="M16.5,13.49c-0.4-1.41-1.05-1.83-2.06-1.83c-0.11,0-0.22,0.02-0.32,0.04c-0.44,0.12-0.78,0.49-0.98,1.03
	c-0.2,0.55-0.21,1.12-0.04,1.78c0.31,1.16,1.13,2.01,1.97,2.01c0.11,0,0.22-0.02,0.32-0.04C16.31,16.21,16.88,14.82,16.5,13.49z
	 M18,2.05C9.19,2.05,2.05,9.19,2.05,18c0,8.81,7.14,15.95,15.95,15.95c8.81,0,15.95-7.14,15.95-15.95C33.95,9.19,26.81,2.05,18,2.05
	z M17.08,24.85c-1,0.49-2.08,0.54-2.5,0.54c-0.08,0-0.12,0-0.13,0c0,0-0.03,0-0.08,0c-0.65,0-3.89-0.15-3.89-3.1
	c0-2.9,3.53-3.13,4.61-3.13h0.03c-0.62-0.83-0.5-1.68-0.5-1.68c-0.05,0-0.13,0.01-0.23,0.01c-0.41,0-1.19-0.06-1.87-0.5
	c-0.83-0.53-1.25-1.44-1.25-2.69c0-3.54,3.87-3.68,3.9-3.68h3.86v0.08c0,0.43-0.78,0.51-1.3,0.59c-0.18,0.03-0.54,0.06-0.64,0.12
	c0.98,0.52,1.13,1.34,1.13,2.56c0,1.39-0.54,2.13-1.12,2.65c-0.36,0.32-0.64,0.57-0.64,0.91c0,0.33,0.39,0.67,0.83,1.06
	c0.73,0.64,1.74,1.53,1.74,3.01C19.04,23.12,18.38,24.22,17.08,24.85z M25.52,17.98H23v2.52h-1.59v-2.52h-2.52v-1.59h2.52v-2.52H23
	v2.52h2.52V17.98z M15.05,19.91c-0.09,0-0.17,0-0.26,0.01c-0.74,0.05-1.42,0.33-1.91,0.78c-0.49,0.44-0.74,1-0.7,1.56
	c0.07,1.18,1.34,1.87,2.88,1.76c1.52-0.11,2.53-0.98,2.45-2.16C17.44,20.75,16.47,19.91,15.05,19.91z"/>
</svg>
