<?xml version="1.0" encoding="utf-8"?>
<!-- Generator: Adobe Illustrator 16.0.4, SVG Export Plug-In . SVG Version: 6.00 Build 0)  -->
<!DOCTYPE svg PUBLIC "-//W3C//DTD SVG 1.1//EN" "http://www.w3.org/Graphics/SVG/1.1/DTD/svg11.dtd">
<svg version="1.1" id="Layer_1" xmlns="http://www.w3.org/2000/svg" xmlns:xlink="http://www.w3.org/1999/xlink" x="0px" y="0px"
	 width="36px" height="36px" viewBox="0 0 36 36" enable-background="new 0 0 36 36" xml:space="preserve">
<path fill="#BCBEC0" d="M18,2.05C9.19,2.05,2.05,9.19,2.05,18c0,8.81,7.14,15.95,15.95,15.95c8.81,0,15.95-7.14,15.95-15.95
	C33.95,9.19,26.81,2.05,18,2.05z M19.09,21.78c-1.02-0.08-1.45-0.59-2.25-1.07c-0.44,2.31-0.98,4.53-2.57,5.68
	c-0.49-3.49,0.72-6.12,1.29-8.9c-0.96-1.62,0.12-4.88,2.15-4.08c2.5,0.99-2.16,6.02,0.96,6.65c3.27,0.65,4.6-5.67,2.57-7.72
	c-2.93-2.97-8.52-0.07-7.83,4.18c0.17,1.04,1.24,1.35,0.43,2.79c-1.87-0.42-2.43-1.89-2.36-3.86c0.12-3.22,2.9-5.48,5.68-5.79
	c3.53-0.39,6.84,1.29,7.29,4.61C24.97,18.02,22.86,22.07,19.09,21.78z"/>
</svg>
