<?xml version="1.0" encoding="utf-8"?>
<!-- Generator: Adobe Illustrator 16.0.4, SVG Export Plug-In . SVG Version: 6.00 Build 0)  -->
<!DOCTYPE svg PUBLIC "-//W3C//DTD SVG 1.1//EN" "http://www.w3.org/Graphics/SVG/1.1/DTD/svg11.dtd">
<svg version="1.1" id="Layer_1" xmlns="http://www.w3.org/2000/svg" xmlns:xlink="http://www.w3.org/1999/xlink" x="0px" y="0px"
	 width="36px" height="36px" viewBox="0 0 36 36" enable-background="new 0 0 36 36" xml:space="preserve">
<path fill="#BCBEC0" d="M18,2.05C9.19,2.05,2.05,9.19,2.05,18c0,8.81,7.14,15.95,15.95,15.95S33.95,26.81,33.95,18
	C33.95,9.19,26.81,2.05,18,2.05z M11.68,13.66h12.65c0.67,0,0.32,0.62-0.04,0.81c-0.36,0.2-5.42,2.91-5.61,3.01
	c-0.19,0.1-0.43,0.15-0.68,0.15c-0.25,0-0.49-0.05-0.68-0.15c-0.19-0.1-5.24-2.82-5.61-3.01C11.35,14.28,11.01,13.66,11.68,13.66z
	 M24.73,21.62c0,0.31-0.42,0.72-0.74,0.72H12.01c-0.32,0-0.74-0.4-0.74-0.72c0,0,0-5.35,0-5.49c0-0.14,0-0.32,0.29-0.16
	c0.42,0.22,5.51,2.88,5.76,3.01c0.25,0.13,0.43,0.15,0.68,0.15c0.25,0,0.42-0.02,0.68-0.15c0.26-0.13,5.35-2.79,5.76-3.01
	c0.29-0.15,0.29,0.03,0.29,0.16C24.73,16.27,24.73,21.62,24.73,21.62z"/>
</svg>
