<?xml version="1.0" encoding="utf-8"?>
<!-- Generator: Adobe Illustrator 16.0.4, SVG Export Plug-In . SVG Version: 6.00 Build 0)  -->
<!DOCTYPE svg PUBLIC "-//W3C//DTD SVG 1.1//EN" "http://www.w3.org/Graphics/SVG/1.1/DTD/svg11.dtd">
<svg version="1.1" id="Layer_1" xmlns="http://www.w3.org/2000/svg" xmlns:xlink="http://www.w3.org/1999/xlink" x="0px" y="0px"
	 width="36px" height="22px" viewBox="0 0 36 22" enable-background="new 0 0 36 22" xml:space="preserve">
<g>
	<g>
		<path fill="#FFFFFF" d="M19.62,16.73l-4.31-4.31c0.65-1.07,1.02-2.32,1.02-3.66c0-3.9-3.38-7.27-7.27-7.27
			C5.16,1.48,2,4.64,2,8.54c0,3.9,3.38,7.27,7.27,7.27c1.29,0,2.51-0.35,3.55-0.96l4.33,4.33c0.42,0.42,1.11,0.42,1.54,0l1.08-1.07
			C20.19,17.68,20.04,17.15,19.62,16.73z M4.17,8.54c0-2.7,2.19-4.88,4.88-4.88c2.7,0,5.1,2.41,5.1,5.1s-2.19,4.88-4.88,4.88
			C6.58,13.64,4.17,11.24,4.17,8.54z"/>
	</g>
	<polygon fill="#FFFFFF" points="26.67,6.93 30.76,12.05 34.85,6.93 	"/>
</g>
</svg>
