<?xml version="1.0" encoding="utf-8"?>
<!-- Generator: Adobe Illustrator 16.0.4, SVG Export Plug-In . SVG Version: 6.00 Build 0)  -->
<!DOCTYPE svg PUBLIC "-//W3C//DTD SVG 1.1//EN" "http://www.w3.org/Graphics/SVG/1.1/DTD/svg11.dtd">
<svg version="1.1" id="Layer_1" xmlns="http://www.w3.org/2000/svg" xmlns:xlink="http://www.w3.org/1999/xlink" x="0px" y="0px"
	 width="36px" height="36px" viewBox="0 0 36 36" enable-background="new 0 0 36 36" xml:space="preserve">
<path fill="#FFFFFF" d="M18,2.05C9.19,2.05,2.05,9.19,2.05,18c0,8.81,7.14,15.95,15.95,15.95c8.81,0,15.95-7.14,15.95-15.95
	C33.95,9.19,26.81,2.05,18,2.05z M24.49,15.12c0.01,0.13,0.01,0.27,0.01,0.41c0,4.15-3.16,8.94-8.94,8.94
	c-1.77,0-3.42-0.52-4.81-1.41c0.25,0.03,0.5,0.04,0.75,0.04c1.47,0,2.83-0.5,3.9-1.35c-1.37-0.03-2.53-0.93-2.93-2.18
	c0.19,0.04,0.39,0.06,0.59,0.06c0.29,0,0.56-0.04,0.83-0.11c-1.44-0.29-2.52-1.56-2.52-3.08c0-0.01,0-0.03,0-0.04
	c0.42,0.24,0.91,0.38,1.42,0.39c-0.84-0.56-1.4-1.53-1.4-2.62c0-0.58,0.15-1.12,0.43-1.58c1.55,1.9,3.86,3.15,6.47,3.28
	c-0.05-0.23-0.08-0.47-0.08-0.72c0-1.73,1.41-3.14,3.14-3.14c0.9,0,1.72,0.38,2.29,0.99c0.72-0.14,1.39-0.4,2-0.76
	c-0.24,0.73-0.73,1.35-1.38,1.74c0.63-0.07,1.24-0.24,1.8-0.49C25.63,14.12,25.1,14.67,24.49,15.12z"/>
</svg>
