<?xml version="1.0" encoding="utf-8"?>
<!-- Generator: Adobe Illustrator 16.0.4, SVG Export Plug-In . SVG Version: 6.00 Build 0)  -->
<!DOCTYPE svg PUBLIC "-//W3C//DTD SVG 1.1//EN" "http://www.w3.org/Graphics/SVG/1.1/DTD/svg11.dtd">
<svg version="1.1" id="Layer_1" xmlns="http://www.w3.org/2000/svg" xmlns:xlink="http://www.w3.org/1999/xlink" x="0px" y="0px"
	 width="171px" height="43px" viewBox="0 0 171 43" enable-background="new 0 0 171 43" xml:space="preserve">
<g>
	<path fill="#FFFFFF" d="M60.62,29.21c-0.41,0-1.87,0.06-2.2,0.06v-0.39c0.63-0.15,1.01-0.71,1.01-1.19v-4.46h-7.05v4.46
		c0,0.48,0.39,1.01,1.04,1.19v0.39c-0.33,0-1.81-0.06-2.23-0.06c-0.36,0-1.75,0.06-2.08,0.06v-0.39c0.62-0.15,1.01-0.71,1.01-1.19
		v-9.3c0-0.45-0.36-1.01-1.01-1.19v-0.39c0.33,0,1.72,0.06,2.08,0.06c0.41,0,1.9-0.06,2.23-0.06v0.39
		c-0.62,0.15-1.04,0.71-1.04,1.19v3.66h7.05v-3.66c0-0.47-0.36-1.04-1.01-1.19v-0.39c0.33,0,1.78,0.06,2.2,0.06
		c0.36,0,1.78-0.06,2.11-0.06v0.39c-0.62,0.15-1.04,0.71-1.04,1.19v9.3c0,0.45,0.39,1.01,1.04,1.19v0.39
		C62.4,29.27,60.98,29.21,60.62,29.21"/>
	<path fill="#FFFFFF" d="M75.88,28.94c-0.48,0.33-1.1,0.83-1.1,0.83c-0.42-0.39-1.22-1.19-1.37-2.29c-1.04,1.04-2.49,1.99-4.34,1.99
		c-2.55,0-3.65-1.63-3.65-3.62v-5.88c0-0.95-0.53-1.39-1.51-1.61v-0.33l3.44-1.36h0.33v7.51c0,2.11,0.45,3.77,2.56,3.77
		c1.34,0,2.49-0.89,3.09-1.63v-6.35c0-0.95-0.53-1.39-1.51-1.61v-0.33l3.44-1.36h0.33v9.98c0,0.95,0.3,1.19,0.65,1.19
		c0.21,0,0.54-0.03,0.69-0.12l0.21,0.47C77.13,28.2,76.5,28.53,75.88,28.94"/>
	<path fill="#FFFFFF" d="M95.65,29.21c-0.39,0-2.05,0.06-2.41,0.06v-0.36c0.62-0.27,1.31-0.59,1.31-1.16v-5.79
		c0-2.11-0.12-3.77-2.23-3.77c-1.19,0-2.34,0.69-3.03,1.37c0.03,0.24,0.03,0.5,0.03,0.74v7.45c0,0.59,0.62,0.86,1.34,1.16v0.36
		c-0.38,0-2.11-0.06-2.49-0.06c-0.39,0-2.05,0.06-2.41,0.06v-0.36c0.62-0.27,1.31-0.59,1.31-1.16v-5.79c0-2.11-0.12-3.77-2.23-3.77
		c-1.34,0-2.37,0.89-2.97,1.63v7.93c0,0.59,0.62,0.86,1.33,1.16v0.36c-0.39,0-2.11-0.06-2.49-0.06c-0.39,0-2.05,0.06-2.41,0.06
		v-0.36c0.62-0.27,1.31-0.59,1.31-1.16v-7.78c0-0.95-0.53-1.39-1.52-1.61v-0.33l3.33-1.37h0.32l0.12,1.93
		c1.07-1.01,2.29-1.93,4.12-1.93c1.75,0,2.67,0.8,3.06,1.93c1.07-1.01,2.61-1.93,4.42-1.93c2.55,0,3.33,1.63,3.33,3.62v7.45
		c0,0.59,0.62,0.86,1.34,1.16v0.36C97.75,29.27,96.03,29.21,95.65,29.21"/>
	<path fill="#FFFFFF" d="M109.28,28.94c-0.47,0.33-1.1,0.83-1.1,0.83c-0.41-0.39-0.92-1.04-1.22-1.87
		c-0.86,0.95-2.26,1.57-3.83,1.57c-2.26,0-3.86-1.07-3.86-3.47c0-2.26,2.14-3.41,4.3-3.8c0.59-0.09,2.49-0.12,3.15-0.12v-1.93
		c0-1.33-0.83-2.43-2.64-2.43c-1.45,0-2.44,0.71-3.15,1.96h-0.39v-2.41c1.13-0.33,2.43-0.59,4.19-0.59c3.53,0,4.24,1.81,4.24,3.8
		v6.17c0,0.95,0.3,1.19,0.65,1.19c0.21,0,0.53-0.03,0.69-0.12l0.21,0.47C110.52,28.2,109.9,28.53,109.28,28.94 M106.72,23.03h-1.75
		c-1.75,0-3.3,0.95-3.3,2.85c0,1.37,0.92,2.17,2.05,2.17c1.19,0,2.38-0.65,3-1.66V23.03z"/>
	<path fill="#FFFFFF" d="M122.02,29.21c-0.39,0-2.05,0.06-2.4,0.06v-0.36c0.62-0.27,1.31-0.59,1.31-1.16v-5.79
		c0-2.11-0.83-3.77-2.94-3.77c-1.34,0-2.5,0.89-3.09,1.63v7.93c0,0.59,0.62,0.86,1.34,1.16v0.36c-0.39,0-2.11-0.06-2.5-0.06
		c-0.38,0-2.05,0.06-2.4,0.06v-0.36c0.62-0.27,1.31-0.59,1.31-1.16v-7.78c0-0.95-0.54-1.39-1.51-1.61v-0.33l3.32-1.37h0.33
		l0.12,1.93c1.07-1.01,2.4-1.93,4.24-1.93c2.55,0,4.04,1.63,4.04,3.62v7.45c0,0.59,0.63,0.86,1.34,1.16v0.36
		C124.12,29.27,122.4,29.21,122.02,29.21"/>
	<path fill="#FFFFFF" d="M128.31,29.21c-0.39,0-2.05,0.06-2.4,0.06v-0.36c0.62-0.27,1.31-0.59,1.31-1.16v-7.78
		c0-0.95-0.53-1.39-1.51-1.61v-0.33l3.44-1.37h0.33v11.08c0,0.59,0.62,0.86,1.34,1.16v0.36C130.42,29.27,128.7,29.21,128.31,29.21"
		/>
	<path fill="#FFFFFF" d="M136.6,29.47c-1.42,0-2.82-0.68-2.82-3.47v-7.99h-1.84V17.3l1.6-0.48c0.86-0.77,1.28-1.96,1.51-3.35h0.98
		v3.41h3.65v1.13h-3.65v7.6c0,1.57,0.51,2.11,1.43,2.11c0.89,0,1.45-0.45,1.84-0.86l0.48,0.45
		C139.45,27.93,138.29,29.47,136.6,29.47"/>
	<path fill="#FFFFFF" d="M143.73,29.21c-0.39,0-2.05,0.06-2.41,0.06v-0.36c0.63-0.27,1.31-0.59,1.31-1.16v-7.78
		c0-0.95-0.54-1.39-1.52-1.61v-0.33l3.44-1.37h0.33v11.08c0,0.59,0.62,0.86,1.34,1.16v0.36C145.83,29.27,144.11,29.21,143.73,29.21"
		/>
	<path fill="#FFFFFF" d="M158.48,22.08h-8.43c-0.39,3.41,1.51,5.97,4.33,5.97c1.6,0,2.7-0.27,3.44-1.04l0.5,0.56
		c-0.65,0.77-1.99,1.9-4.33,1.9c-4.19,0-6.41-2.55-6.41-6.41c0-3.92,2.7-6.38,5.94-6.38c3.15,0,5.2,2.23,5.05,4.78
		C158.57,21.67,158.54,21.94,158.48,22.08 M153.55,17.75c-1.96,0-3.12,1.81-3.38,3.33h6C156.37,19.59,155.43,17.75,153.55,17.75"/>
	<path fill="#FFFFFF" d="M164.51,29.47c-1.22,0-2.73-0.29-3.74-0.59v-2.61h0.39c0.83,1.49,1.78,2.14,3.32,2.14
		c1.69,0,2.61-0.62,2.61-1.72c0-0.71-0.36-1.19-0.98-1.48l-3.68-1.81c-1.19-0.6-1.93-1.52-1.93-2.97c0-2.44,2.2-3.74,4.54-3.74
		c1.22,0,2.73,0.3,3.74,0.59v2.52h-0.39c-0.65-1.16-1.75-2.05-3.29-2.05c-1.46,0-2.38,0.78-2.38,1.87c0,0.95,0.36,1.42,1.34,1.9
		l3.74,1.81c0.65,0.33,1.45,1.13,1.45,2.49C169.26,28.17,167.42,29.47,164.51,29.47"/>
	<g>
		<path fill="#FFFFFF" d="M49.9,9.56h0.96l1.36,2.22h0.01V9.56h0.7v3.19H52l-1.39-2.27H50.6v2.27h-0.7V9.56z"/>
		<path fill="#FFFFFF" d="M54.76,9.56h0.58l1.39,3.19h-0.79l-0.27-0.68h-1.24l-0.27,0.68h-0.78L54.76,9.56z M55.03,10.48l-0.39,0.99
			h0.78L55.03,10.48z"/>
		<path fill="#FFFFFF" d="M57.39,10.18h-0.91V9.56H59v0.62h-0.91v2.57h-0.7V10.18z"/>
		<path fill="#FFFFFF" d="M59.49,9.56h0.7v3.19h-0.7V9.56z"/>
		<path fill="#FFFFFF" d="M62.52,9.47c1,0,1.72,0.65,1.72,1.68c0,1.02-0.73,1.68-1.72,1.68c-1,0-1.72-0.65-1.72-1.68
			C60.79,10.13,61.52,9.47,62.52,9.47z M62.52,12.18c0.6,0,0.99-0.43,0.99-1.03c0-0.6-0.39-1.03-0.99-1.03
			c-0.6,0-0.99,0.43-0.99,1.03C61.52,11.75,61.92,12.18,62.52,12.18z"/>
		<path fill="#FFFFFF" d="M64.85,9.56h0.96l1.36,2.22h0.01V9.56h0.7v3.19h-0.92l-1.39-2.27h-0.01v2.27h-0.7V9.56z"/>
		<path fill="#FFFFFF" d="M69.71,9.56h0.58l1.39,3.19h-0.79l-0.28-0.68h-1.24l-0.27,0.68h-0.78L69.71,9.56z M69.98,10.48l-0.39,0.99
			h0.78L69.98,10.48z"/>
		<path fill="#FFFFFF" d="M72.17,9.56h0.7v2.54h1.3v0.65h-2.01V9.56z"/>
	</g>
	<g>
		<path fill="#FFFFFF" d="M75.83,9.56H78v0.65h-1.46v0.6h1.38v0.65h-1.38v0.65h1.55v0.65h-2.25V9.56z"/>
		<path fill="#FFFFFF" d="M78.78,9.56h0.96l1.36,2.22h0.01V9.56h0.7v3.19h-0.92l-1.39-2.27h-0.01v2.27h-0.7V9.56z"/>
		<path fill="#FFFFFF" d="M82.59,9.56h1.05c1.03,0,1.89,0.44,1.89,1.61c0,1.03-0.84,1.59-1.79,1.59h-1.15V9.56z M83.29,12.1h0.36
			c0.65,0,1.15-0.25,1.15-0.97c0-0.63-0.5-0.92-1.1-0.92h-0.42V12.1z"/>
		<path fill="#FFFFFF" d="M87.69,9.47c1,0,1.72,0.65,1.72,1.68c0,1.02-0.73,1.68-1.72,1.68s-1.72-0.65-1.72-1.68
			C85.97,10.13,86.7,9.47,87.69,9.47z M87.69,12.18c0.6,0,0.99-0.43,0.99-1.03c0-0.6-0.39-1.03-0.99-1.03s-0.99,0.43-0.99,1.03
			C86.7,11.75,87.1,12.18,87.69,12.18z"/>
		<path fill="#FFFFFF" d="M89.7,9.56h0.77l0.51,2.05h0.01l0.67-2.05h0.65l0.66,2.1h0.01l0.54-2.1h0.71l-0.93,3.19h-0.63l-0.7-2.21
			h-0.01l-0.7,2.21h-0.6L89.7,9.56z"/>
		<path fill="#FFFFFF" d="M94.67,9.56h1.06l0.74,2.08h0.01l0.74-2.08h1.06v3.19h-0.7V10.3h-0.01l-0.84,2.45h-0.54l-0.81-2.45h-0.01
			v2.45h-0.7V9.56z"/>
		<path fill="#FFFFFF" d="M99.09,9.56h2.17v0.65h-1.46v0.6h1.38v0.65h-1.38v0.65h1.55v0.65h-2.25V9.56z"/>
		<path fill="#FFFFFF" d="M102.04,9.56h0.96l1.36,2.22h0.01V9.56h0.7v3.19h-0.92l-1.39-2.27h-0.01v2.27h-0.7V9.56z"/>
		<path fill="#FFFFFF" d="M106.47,10.18h-0.91V9.56h2.52v0.62h-0.91v2.57h-0.7V10.18z"/>
	</g>
	<g>
		<path fill="#FFFFFF" d="M109.71,9.56h2.14v0.65h-1.44v0.65h1.33v0.65h-1.33v1.25h-0.7V9.56z"/>
		<path fill="#FFFFFF" d="M114.04,9.47c1,0,1.72,0.65,1.72,1.68c0,1.02-0.73,1.68-1.72,1.68s-1.72-0.65-1.72-1.68
			C112.32,10.13,113.05,9.47,114.04,9.47z M114.04,12.18c0.6,0,0.99-0.43,0.99-1.03c0-0.6-0.39-1.03-0.99-1.03
			c-0.6,0-0.99,0.43-0.99,1.03C113.05,11.75,113.44,12.18,114.04,12.18z"/>
		<path fill="#FFFFFF" d="M116.38,9.56h1.24c0.65,0,1.2,0.23,1.2,0.97c0,0.45-0.24,0.79-0.69,0.88l0.81,1.35h-0.84l-0.67-1.28h-0.35
			v1.28h-0.7V9.56z M117.08,10.88h0.41c0.26,0,0.59-0.01,0.59-0.36c0-0.32-0.29-0.37-0.54-0.37h-0.46V10.88z"/>
	</g>
	<g>
		<path fill="#FFFFFF" d="M121.17,10.18h-0.91V9.56h2.52v0.62h-0.91v2.57h-0.7V10.18z"/>
		<path fill="#FFFFFF" d="M123.27,9.56h0.7v1.19h1.37V9.56h0.7v3.19h-0.7v-1.38h-1.37v1.38h-0.7V9.56z"/>
		<path fill="#FFFFFF" d="M126.85,9.56h2.17v0.65h-1.47v0.6h1.38v0.65h-1.38v0.65h1.55v0.65h-2.25V9.56z"/>
	</g>
	<path fill="#FFFFFF" d="M23.59,21.41c0,1.21-0.97,2.18-2.18,2.18c-1.2,0-2.18-0.98-2.18-2.18c0-1.21,0.98-2.18,2.18-2.18
		C22.62,19.23,23.59,20.21,23.59,21.41"/>
	<path fill="#FFFFFF" d="M20.09,2.29C20.03,1.2,20.45,1,21.42,1c0.95,0,1.38,0.2,1.32,1.29L21.82,15.6
		c-0.04,0.3-0.17,0.96-0.43,0.96c-0.27,0-0.4-0.66-0.43-0.96L20.09,2.29z"/>
	<path fill="#FFFFFF" d="M34,6.95c0.73-0.81,1.17-0.65,1.85,0.03c0.67,0.68,0.84,1.12,0.02,1.84l-10.06,8.77
		c-0.24,0.18-0.8,0.56-0.98,0.37c-0.19-0.19,0.19-0.75,0.37-0.98L34,6.95z"/>
	<path fill="#FFFFFF" d="M40.54,20.09c1.09-0.06,1.29,0.37,1.29,1.33c0,0.95-0.2,1.38-1.29,1.32l-13.31-0.91
		c-0.3-0.04-0.96-0.17-0.96-0.43c0-0.27,0.66-0.4,0.96-0.43L40.54,20.09z"/>
	<path fill="#FFFFFF" d="M35.87,34c0.81,0.73,0.65,1.17-0.03,1.85c-0.68,0.67-1.12,0.84-1.84,0.02l-8.77-10.06
		c-0.18-0.24-0.56-0.79-0.37-0.98c0.19-0.19,0.75,0.19,0.98,0.37L35.87,34z"/>
	<path fill="#FFFFFF" d="M22.73,40.54c0.06,1.09-0.37,1.29-1.33,1.29c-0.96,0-1.38-0.2-1.32-1.29L21,27.22
		c0.04-0.3,0.17-0.96,0.43-0.96c0.27,0,0.4,0.66,0.43,0.96L22.73,40.54z"/>
	<path fill="#FFFFFF" d="M8.82,35.87c-0.73,0.81-1.17,0.65-1.85-0.03C6.3,35.17,6.14,34.72,6.96,34l10.06-8.77
		c0.24-0.18,0.8-0.56,0.98-0.37c0.19,0.19-0.19,0.75-0.37,0.98L8.82,35.87z"/>
	<path fill="#FFFFFF" d="M2.29,22.73C1.2,22.8,1,22.37,1,21.41c0-0.96,0.2-1.39,1.29-1.32L15.6,21c0.3,0.04,0.96,0.17,0.96,0.43
		c0,0.27-0.66,0.4-0.96,0.43L2.29,22.73z"/>
	<path fill="#FFFFFF" d="M6.95,8.82C6.14,8.1,6.3,7.65,6.98,6.98C7.66,6.3,8.1,6.14,8.82,6.96l8.77,10.06
		c0.19,0.24,0.56,0.8,0.37,0.98c-0.19,0.19-0.75-0.19-0.98-0.37L6.95,8.82z"/>
	<path fill="#FFFFFF" d="M23.81,15.29c-0.13,0.41-0.17,0.85-0.3,1.26c-0.12,0.38-0.2,0.5-0.57,0.38c-0.6-0.19,0.08-2.33,0.18-2.65
		c0.87-2.74,4.74-5.42,5.51-7.81c0.43-1.35-0.23-2.85-1.65-3.3c-1.23-0.39-1.74,0.35-2.18,0.21c-0.13-0.04-0.18-0.2-0.14-0.32
		c0.19-0.6,1.5-1.46,3.9-0.7c1.95,0.62,3.08,2.72,2.46,4.67C29.97,10.32,25.19,10.97,23.81,15.29"/>
	<path fill="#FFFFFF" d="M27.44,18.78c-0.38,0.2-0.72,0.48-1.1,0.68c-0.35,0.18-0.49,0.21-0.67-0.13c-0.29-0.56,1.71-1.59,2-1.74
		c2.55-1.32,7.19-0.48,9.42-1.63c1.26-0.65,1.85-2.18,1.16-3.5c-0.59-1.14-1.48-0.99-1.69-1.4c-0.06-0.12,0.01-0.27,0.13-0.33
		c0.56-0.29,2.09,0.03,3.25,2.27c0.94,1.82,0.26,4.1-1.57,5.04C35.31,19.62,31.46,16.7,27.44,18.78"/>
	<path fill="#FFFFFF" d="M27.54,23.81c-0.41-0.13-0.85-0.17-1.26-0.3c-0.38-0.12-0.5-0.19-0.38-0.57c0.19-0.6,2.33,0.08,2.65,0.18
		c2.74,0.87,5.42,4.74,7.81,5.51c1.35,0.43,2.85-0.23,3.3-1.65c0.39-1.23-0.35-1.74-0.21-2.18c0.04-0.12,0.2-0.18,0.33-0.14
		c0.6,0.19,1.46,1.5,0.7,3.9c-0.63,1.95-2.72,3.08-4.67,2.45C32.5,29.97,31.85,25.19,27.54,23.81"/>
	<path fill="#FFFFFF" d="M24.05,27.44c-0.2-0.38-0.48-0.72-0.68-1.1c-0.19-0.35-0.21-0.49,0.14-0.67c0.56-0.29,1.59,1.71,1.74,2
		c1.32,2.55,0.48,7.19,1.63,9.42c0.65,1.26,2.18,1.85,3.5,1.16c1.14-0.59,0.99-1.48,1.4-1.69c0.12-0.06,0.27,0.01,0.33,0.13
		c0.29,0.56-0.03,2.1-2.27,3.25c-1.82,0.94-4.1,0.25-5.04-1.57C23.2,35.31,26.12,31.46,24.05,27.44"/>
	<path fill="#FFFFFF" d="M19.01,27.54c0.13-0.41,0.17-0.85,0.3-1.26c0.12-0.38,0.19-0.5,0.57-0.38c0.6,0.19-0.08,2.33-0.18,2.65
		c-0.88,2.74-4.74,5.42-5.51,7.81c-0.43,1.35,0.23,2.85,1.65,3.3c1.23,0.39,1.74-0.34,2.18-0.21c0.13,0.04,0.18,0.2,0.14,0.33
		c-0.19,0.6-1.5,1.46-3.9,0.69c-1.95-0.62-3.08-2.72-2.46-4.67C12.85,32.5,17.64,31.85,19.01,27.54"/>
	<path fill="#FFFFFF" d="M15.38,24.05c0.38-0.2,0.72-0.48,1.1-0.68c0.35-0.19,0.49-0.21,0.67,0.13c0.29,0.56-1.71,1.59-2,1.74
		c-2.55,1.32-7.18,0.48-9.42,1.63c-1.26,0.65-1.85,2.18-1.16,3.5c0.59,1.14,1.47,0.99,1.69,1.39c0.06,0.12-0.01,0.27-0.13,0.33
		c-0.55,0.29-2.1-0.03-3.25-2.27c-0.94-1.82-0.26-4.1,1.57-5.04C7.51,23.2,11.36,26.12,15.38,24.05"/>
	<path fill="#FFFFFF" d="M15.28,19.01c0.41,0.13,0.85,0.17,1.26,0.3c0.38,0.12,0.5,0.19,0.38,0.57c-0.19,0.6-2.33-0.08-2.65-0.18
		c-2.74-0.88-5.42-4.74-7.81-5.51c-1.35-0.43-2.85,0.23-3.3,1.65c-0.39,1.23,0.35,1.74,0.21,2.18c-0.04,0.12-0.2,0.18-0.32,0.14
		c-0.6-0.19-1.46-1.5-0.7-3.9c0.63-1.95,2.72-3.08,4.67-2.46C10.32,12.85,10.97,17.64,15.28,19.01"/>
	<path fill="#FFFFFF" d="M18.78,15.38c0.2,0.38,0.48,0.72,0.68,1.1c0.18,0.35,0.21,0.49-0.13,0.67c-0.56,0.29-1.59-1.71-1.74-2
		c-1.32-2.55-0.48-7.18-1.63-9.42c-0.65-1.26-2.18-1.85-3.5-1.16c-1.14,0.59-0.99,1.47-1.39,1.69c-0.12,0.06-0.27-0.01-0.33-0.13
		c-0.29-0.55,0.03-2.09,2.27-3.25c1.82-0.94,4.1-0.26,5.04,1.56C19.62,7.52,16.7,11.36,18.78,15.38"/>
</g>
</svg>
